<?xml version="1.0" encoding="UTF-8" standalone="no"?>
<!-- Generator: Adobe Illustrator 12.0.1, SVG Export Plug-In . SVG Version: 6.00 Build 51448)  -->

<svg
   xmlns:dc="http://purl.org/dc/elements/1.1/"
   xmlns:cc="http://creativecommons.org/ns#"
   xmlns:rdf="http://www.w3.org/1999/02/22-rdf-syntax-ns#"
   xmlns:svg="http://www.w3.org/2000/svg"
   xmlns="http://www.w3.org/2000/svg"
   xmlns:sodipodi="http://sodipodi.sourceforge.net/DTD/sodipodi-0.dtd"
   xmlns:inkscape="http://www.inkscape.org/namespaces/inkscape"
   version="1.1"
   id="Layer_1"
   width="604.50604"
   height="748.49988"
   viewBox="0 0 604.50606 748.49988"
   overflow="visible"
   enable-background="new 0 0 753.35 2040.391"
   xml:space="preserve"
   inkscape:version="0.91 r13725"
   sodipodi:docname="Alphabet13LetterO.svg"
   style="overflow:visible"><sodipodi:namedview
     pagecolor="#ffffff"
     bordercolor="#666666"
     borderopacity="1"
     objecttolerance="10"
     gridtolerance="10"
     guidetolerance="10"
     inkscape:pageopacity="1"
     inkscape:pageshadow="2"
     inkscape:window-width="1600"
     inkscape:window-height="837"
     id="namedview1923"
     showgrid="false"
     inkscape:zoom="0.89512373"
     inkscape:cx="302.25302"
     inkscape:cy="374.24994"
     inkscape:window-x="-8"
     inkscape:window-y="-8"
     inkscape:window-maximized="1"
     inkscape:current-layer="Layer_1"
     showguides="false"
     fit-margin-top="0"
     fit-margin-left="0"
     fit-margin-right="0"
     fit-margin-bottom="0" /><metadata
     id="metadata1927"><rdf:RDF><cc:Work
         rdf:about=""><dc:format>image/svg+xml</dc:format><dc:type
           rdf:resource="http://purl.org/dc/dcmitype/StillImage" /><dc:title></dc:title></cc:Work></rdf:RDF></metadata><defs
     id="defs1925"><filter
       style="color-interpolation-filters:sRGB"
       inkscape:label="Blur"
       id="filter35393"><feGaussianBlur
         stdDeviation="2 2"
         result="blur"
         id="feGaussianBlur35395" /></filter><filter
       inkscape:menu-tooltip="Bright metallic effect for any color"
       inkscape:menu="Bevels"
       inkscape:label="Blur"
       style="color-interpolation-filters:sRGB"
       id="filter35665"
       height="1"
       width="1"
       y="0"
       x="0"><feGaussianBlur
         result="result6"
         stdDeviation="8"
         in="SourceGraphic"
         id="feGaussianBlur35667" /><feComposite
         in2="SourceGraphic"
         in="result6"
         operator="xor"
         result="result10"
         id="feComposite35669" /><feGaussianBlur
         result="result2"
         stdDeviation="8"
         id="feGaussianBlur35671" /><feComposite
         in2="SourceGraphic"
         operator="atop"
         in="result10"
         result="result91"
         id="feComposite35673" /><feComposite
         result="result4"
         in="result2"
         operator="xor"
         in2="result91"
         id="feComposite35675" /><feGaussianBlur
         in="result4"
         result="result3"
         stdDeviation="4"
         id="feGaussianBlur35677" /><feSpecularLighting
         result="result5"
         specularExponent="5"
         specularConstant="1.10000002"
         surfaceScale="18"
         id="feSpecularLighting35679"><feDistantLight
           azimuth="235"
           elevation="55"
           id="feDistantLight35681" /></feSpecularLighting><feComposite
         in="result3"
         k3="1.1"
         k2="0.5"
         operator="arithmetic"
         result="result7"
         in2="result5"
         k1="0.5"
         id="feComposite35683"
         k4="0" /><feComposite
         in="result7"
         operator="atop"
         in2="SourceGraphic"
         result="fbSourceGraphic"
         id="feComposite35685" /><feColorMatrix
         result="fbSourceGraphicAlpha"
         in="fbSourceGraphic"
         values="0 0 0 -1 0 0 0 0 -1 0 0 0 0 -1 0 0 0 0 1 0"
         id="feColorMatrix36083" /><feGaussianBlur
         id="feGaussianBlur36085"
         stdDeviation="2 2"
         result="blur"
         in="fbSourceGraphic" /><feColorMatrix
         id="feColorMatrix36087"
         values="1 0 0 0 0 0 1 0 0 0 0 0 1 0 0 0 0 0 50 0 "
         result="colormatrix" /><feComposite
         id="feComposite36089"
         in2="fbSourceGraphic"
         in="colormatrix"
         operator="in" /></filter></defs><g
     id="g36409"
     transform="matrix(5,0,0,5,-3091.0996,-4730.4201)"><path
       d="m 729.04602,1020.25 c 0,15.723 -4.725,29.877 -14.174,42.467 -10.303,13.729 -23.053,20.592 -38.25,20.592 -14.459,0 -26.299,-6.27 -35.52,-18.809 -8.539,-11.627 -12.807,-25.479 -12.807,-41.553 0,-12.994 2.363,-24.36498 7.094,-34.11298 4.559,-9.404 10.684,-16.102 18.375,-20.092 1.025,-0.455 1.738,-0.684 2.137,-0.684 0.512,0 0.77,0.199 0.77,0.598 0,0.57 -0.514,1.283 -1.541,2.139 -3.137,2.734 -5.676,5.613 -7.613,8.633 -2.682,4.275 -4.707,9.377 -6.074,15.303 -1.598,7.06598 -2.396,15.89998 -2.396,26.49998 0,13.621 4.131,25.73 12.393,36.33 8.547,11 18.66,16.498 30.342,16.498 10.77,0 19.516,-3.844 26.24,-11.535 7.35,-8.43 11.025,-20.309 11.025,-35.633 0,-16.348 -4.27,-30.93198 -12.809,-43.74998 -8.199,-12.305 -17.023,-18.457 -26.473,-18.457 -3.816,0 -6.848,0.951 -9.096,2.854 -2.25,1.902 -3.373,4.412 -3.373,7.533 0,1.818 0.539,3.479 1.619,4.982 1.078,1.504 2.5,2.256 4.262,2.256 0.396,0 0.822,-0.027 1.277,-0.086 0.455,-0.057 0.98,-0.299 1.578,-0.727 0.596,-0.426 1.021,-0.854 1.277,-1.281 0.256,-0.426 0.469,-0.854 0.639,-1.281 0.17,-0.427 0.312,-0.812 0.428,-1.154 0,-0.342 0.113,-0.514 0.34,-0.514 0.283,0 0.568,0.172 0.854,0.514 0.566,1.025 0.852,2.393 0.852,4.102 0,0.285 0,0.57 0,0.855 -0.113,0.402 -0.17,0.688 -0.17,0.857 -0.344,2.172 -1.369,4.002 -3.078,5.486 -1.709,1.486 -3.76,2.229 -6.15,2.229 -3.646,0 -6.637,-1.363 -8.973,-4.094 -2.336,-2.729 -3.504,-6.025 -3.504,-9.893 0,-5.742 2.475,-10.406 7.426,-13.988 4.438,-3.184 9.643,-4.775 15.619,-4.775 14.168,0 25.746,6.268 34.738,18.799 8.476,11.79 12.716,26.08698 12.716,42.89198 z"
       id="path35317"
       inkscape:connector-curvature="0"
       style="fill:#000000;fill-opacity:1;stroke:none;stroke-width:4;stroke-miterlimit:4;stroke-dasharray:none;stroke-opacity:1;filter:url(#filter35393)" /><path
       style="fill:#ffcd00;fill-opacity:1;stroke:none;stroke-width:4;stroke-miterlimit:4;stroke-dasharray:none;stroke-opacity:1;filter:url(#filter35665)"
       inkscape:connector-curvature="0"
       id="path1111"
       d="m 724.379,1015.583 c 0,15.723 -4.725,29.877 -14.174,42.467 -10.303,13.729 -23.053,20.592 -38.25,20.592 -14.459,0 -26.299,-6.27 -35.52,-18.809 -8.539,-11.627 -12.807,-25.479 -12.807,-41.553 0,-12.994 2.363,-24.365 7.094,-34.113 4.559,-9.404 10.684,-16.102 18.375,-20.092 1.025,-0.455 1.738,-0.684 2.137,-0.684 0.512,0 0.77,0.199 0.77,0.598 0,0.57 -0.514,1.283 -1.541,2.139 -3.137,2.734 -5.676,5.613 -7.613,8.633 -2.682,4.275 -4.707,9.377 -6.074,15.303 -1.598,7.066 -2.396,15.9 -2.396,26.5 0,13.621 4.131,25.73 12.393,36.33 8.547,11 18.66,16.498 30.342,16.498 10.77,0 19.516,-3.844 26.24,-11.535 7.35,-8.43 11.025,-20.309 11.025,-35.633 0,-16.348 -4.27,-30.932 -12.809,-43.75 -8.199,-12.305 -17.023,-18.457 -26.473,-18.457 -3.816,0 -6.848,0.951 -9.096,2.854 -2.25,1.902 -3.373,4.412 -3.373,7.533 0,1.818 0.539,3.479 1.619,4.982 1.078,1.504 2.5,2.256 4.262,2.256 0.396,0 0.822,-0.027 1.277,-0.086 0.455,-0.057 0.98,-0.299 1.578,-0.727 0.596,-0.426 1.021,-0.854 1.277,-1.281 0.256,-0.426 0.469,-0.854 0.639,-1.281 0.17,-0.427 0.312,-0.812 0.428,-1.154 0,-0.342 0.113,-0.514 0.34,-0.514 0.283,0 0.568,0.172 0.854,0.514 0.566,1.025 0.852,2.393 0.852,4.102 0,0.285 0,0.57 0,0.855 -0.113,0.402 -0.17,0.688 -0.17,0.857 -0.344,2.172 -1.369,4.002 -3.078,5.486 -1.709,1.486 -3.76,2.229 -6.15,2.229 -3.646,0 -6.637,-1.363 -8.973,-4.094 -2.336,-2.729 -3.504,-6.025 -3.504,-9.893 0,-5.742 2.475,-10.406 7.426,-13.988 4.438,-3.184 9.643,-4.775 15.619,-4.775 14.168,0 25.746,6.268 34.738,18.799 8.476,11.79 12.716,26.087 12.716,42.892 z" /><path
       d="m 724.379,1015.583 c 0,15.723 -4.725,29.877 -14.174,42.467 -10.303,13.729 -23.053,20.592 -38.25,20.592 -14.459,0 -26.299,-6.27 -35.52,-18.809 -8.539,-11.627 -12.807,-25.479 -12.807,-41.553 0,-12.994 2.363,-24.365 7.094,-34.113 4.559,-9.404 10.684,-16.102 18.375,-20.092 1.025,-0.455 1.738,-0.684 2.137,-0.684 0.512,0 0.77,0.199 0.77,0.598 0,0.57 -0.514,1.283 -1.541,2.139 -3.137,2.734 -5.676,5.613 -7.613,8.633 -2.682,4.275 -4.707,9.377 -6.074,15.303 -1.598,7.066 -2.396,15.9 -2.396,26.5 0,13.621 4.131,25.73 12.393,36.33 8.547,11 18.66,16.498 30.342,16.498 10.77,0 19.516,-3.844 26.24,-11.535 7.35,-8.43 11.025,-20.309 11.025,-35.633 0,-16.348 -4.27,-30.932 -12.809,-43.75 -8.199,-12.305 -17.023,-18.457 -26.473,-18.457 -3.816,0 -6.848,0.951 -9.096,2.854 -2.25,1.902 -3.373,4.412 -3.373,7.533 0,1.818 0.539,3.479 1.619,4.982 1.078,1.504 2.5,2.256 4.262,2.256 0.396,0 0.822,-0.027 1.277,-0.086 0.455,-0.057 0.98,-0.299 1.578,-0.727 0.596,-0.426 1.021,-0.854 1.277,-1.281 0.256,-0.426 0.469,-0.854 0.639,-1.281 0.17,-0.427 0.312,-0.812 0.428,-1.154 0,-0.342 0.113,-0.514 0.34,-0.514 0.283,0 0.568,0.172 0.854,0.514 0.566,1.025 0.852,2.393 0.852,4.102 0,0.285 0,0.57 0,0.855 -0.113,0.402 -0.17,0.688 -0.17,0.857 -0.344,2.172 -1.369,4.002 -3.078,5.486 -1.709,1.486 -3.76,2.229 -6.15,2.229 -3.646,0 -6.637,-1.363 -8.973,-4.094 -2.336,-2.729 -3.504,-6.025 -3.504,-9.893 0,-5.742 2.475,-10.406 7.426,-13.988 4.438,-3.184 9.643,-4.775 15.619,-4.775 14.168,0 25.746,6.268 34.738,18.799 8.476,11.79 12.716,26.087 12.716,42.892 z"
       id="path36231"
       inkscape:connector-curvature="0"
       style="opacity:0.40100002;fill:#ffcd00;fill-opacity:1;stroke:none;stroke-width:4;stroke-miterlimit:4;stroke-dasharray:none;stroke-opacity:1" /></g></svg>